<mxfile host="www.draw.io" modified="2020-02-04T11:37:44.786Z" agent="Mozilla/5.0 (Macintosh; Intel Mac OS X 10_15_3) AppleWebKit/537.36 (KHTML, like Gecko) Chrome/79.0.3945.130 Safari/537.36" etag="zzU59RNP5Et9er2O9lXi" version="12.6.4" type="github">
  <diagram id="nFPEEUdEPx-zrvpFONSe" name="第 1 页">
    <mxGraphModel dx="833" dy="582" grid="1" gridSize="10" guides="1" tooltips="1" connect="1" arrows="1" fold="1" page="1" pageScale="1" pageWidth="827" pageHeight="1169" math="0" shadow="0">
      <root>
        <mxCell id="0"/>
        <mxCell id="1" parent="0"/>
        <mxCell id="H5-FvMktfaqw9fYfWSF2-1" value="开启高级搜索/排序" style="rounded=1;whiteSpace=wrap;html=1;" vertex="1" parent="1">
          <mxGeometry x="328" y="40" width="170" height="30" as="geometry"/>
        </mxCell>
        <mxCell id="H5-FvMktfaqw9fYfWSF2-2" value="" style="endArrow=classic;html=1;" edge="1" parent="1">
          <mxGeometry width="50" height="50" relative="1" as="geometry">
            <mxPoint x="412.5" y="70" as="sourcePoint"/>
            <mxPoint x="413" y="120" as="targetPoint"/>
          </mxGeometry>
        </mxCell>
        <mxCell id="H5-FvMktfaqw9fYfWSF2-8" value="" style="edgeStyle=orthogonalEdgeStyle;rounded=0;orthogonalLoop=1;jettySize=auto;html=1;" edge="1" parent="1" source="H5-FvMktfaqw9fYfWSF2-9">
          <mxGeometry relative="1" as="geometry">
            <mxPoint x="415" y="220" as="targetPoint"/>
          </mxGeometry>
        </mxCell>
        <mxCell id="H5-FvMktfaqw9fYfWSF2-9" value="通知后台同步订单" style="rounded=1;whiteSpace=wrap;html=1;" vertex="1" parent="1">
          <mxGeometry x="360" y="125" width="110" height="50" as="geometry"/>
        </mxCell>
        <mxCell id="H5-FvMktfaqw9fYfWSF2-51" value="" style="edgeStyle=orthogonalEdgeStyle;rounded=0;orthogonalLoop=1;jettySize=auto;html=1;" edge="1" parent="1" source="H5-FvMktfaqw9fYfWSF2-14">
          <mxGeometry relative="1" as="geometry">
            <mxPoint x="265" y="240" as="targetPoint"/>
          </mxGeometry>
        </mxCell>
        <mxCell id="H5-FvMktfaqw9fYfWSF2-57" value="" style="edgeStyle=orthogonalEdgeStyle;rounded=0;orthogonalLoop=1;jettySize=auto;html=1;" edge="1" parent="1" source="H5-FvMktfaqw9fYfWSF2-14">
          <mxGeometry relative="1" as="geometry">
            <mxPoint x="415" y="430" as="targetPoint"/>
          </mxGeometry>
        </mxCell>
        <mxCell id="H5-FvMktfaqw9fYfWSF2-14" value="进度是否为100%" style="rhombus;whiteSpace=wrap;html=1;" vertex="1" parent="1">
          <mxGeometry x="345.23" y="290" width="139.53" height="70" as="geometry"/>
        </mxCell>
        <mxCell id="H5-FvMktfaqw9fYfWSF2-49" value="" style="edgeStyle=orthogonalEdgeStyle;rounded=0;orthogonalLoop=1;jettySize=auto;html=1;" edge="1" parent="1" source="H5-FvMktfaqw9fYfWSF2-48" target="H5-FvMktfaqw9fYfWSF2-14">
          <mxGeometry relative="1" as="geometry"/>
        </mxCell>
        <mxCell id="H5-FvMktfaqw9fYfWSF2-48" value="获取同步进度" style="rounded=1;whiteSpace=wrap;html=1;" vertex="1" parent="1">
          <mxGeometry x="360" y="220" width="110" height="50" as="geometry"/>
        </mxCell>
        <mxCell id="H5-FvMktfaqw9fYfWSF2-52" value="否" style="text;html=1;align=center;verticalAlign=middle;resizable=0;points=[];autosize=1;" vertex="1" parent="1">
          <mxGeometry x="298" y="300" width="30" height="20" as="geometry"/>
        </mxCell>
        <mxCell id="H5-FvMktfaqw9fYfWSF2-54" value="" style="endArrow=classic;html=1;" edge="1" parent="1">
          <mxGeometry width="50" height="50" relative="1" as="geometry">
            <mxPoint x="273.23" y="240" as="sourcePoint"/>
            <mxPoint x="345.23" y="240" as="targetPoint"/>
          </mxGeometry>
        </mxCell>
        <mxCell id="H5-FvMktfaqw9fYfWSF2-55" value="继续查询进度" style="text;html=1;align=center;verticalAlign=middle;resizable=0;points=[];autosize=1;" vertex="1" parent="1">
          <mxGeometry x="180" y="280" width="90" height="20" as="geometry"/>
        </mxCell>
        <mxCell id="H5-FvMktfaqw9fYfWSF2-58" value="是" style="text;html=1;align=center;verticalAlign=middle;resizable=0;points=[];autosize=1;" vertex="1" parent="1">
          <mxGeometry x="441" y="381" width="30" height="20" as="geometry"/>
        </mxCell>
        <mxCell id="H5-FvMktfaqw9fYfWSF2-59" value="同步完成" style="rounded=1;whiteSpace=wrap;html=1;" vertex="1" parent="1">
          <mxGeometry x="361" y="430" width="110" height="50" as="geometry"/>
        </mxCell>
      </root>
    </mxGraphModel>
  </diagram>
</mxfile>
